<?xml version="1.0" encoding="UTF-8" standalone="no"?>
<svg
   xmlns:dc="http://purl.org/dc/elements/1.1/"
   xmlns:cc="http://creativecommons.org/ns#"
   xmlns:rdf="http://www.w3.org/1999/02/22-rdf-syntax-ns#"
   xmlns:svg="http://www.w3.org/2000/svg"
   xmlns="http://www.w3.org/2000/svg"
   xmlns:sodipodi="http://sodipodi.sourceforge.net/DTD/sodipodi-0.dtd"
   xmlns:inkscape="http://www.inkscape.org/namespaces/inkscape"
   viewBox="0 0 46.001125 42.000172"
   width="46.001125"
   height="42.000172"
   version="1.1"
   id="svg4"
   sodipodi:docname="gitlab.svg"
   style="fill:#000000"
   inkscape:version="0.92.3 (2405546, 2018-03-11)">
  <metadata
     id="metadata10">
    <rdf:RDF>
      <cc:Work
         rdf:about="">
        <dc:format>image/svg+xml</dc:format>
        <dc:type
           rdf:resource="http://purl.org/dc/dcmitype/StillImage" />
        <dc:title></dc:title>
      </cc:Work>
    </rdf:RDF>
  </metadata>
  <defs
     id="defs8" />
  <sodipodi:namedview
     pagecolor="#ffffff"
     bordercolor="#666666"
     borderopacity="1"
     objecttolerance="10"
     gridtolerance="10"
     guidetolerance="10"
     inkscape:pageopacity="0"
     inkscape:pageshadow="2"
     inkscape:window-width="780"
     inkscape:window-height="480"
     id="namedview6"
     showgrid="false"
     fit-margin-top="0"
     fit-margin-left="0"
     fit-margin-right="0"
     fit-margin-bottom="0"
     inkscape:zoom="4.72"
     inkscape:cx="23.000523"
     inkscape:cy="21"
     inkscape:window-x="0"
     inkscape:window-y="0"
     inkscape:window-maximized="0"
     inkscape:current-layer="svg4" />
  <path
     d="M 36.012242,1.7271269e-4 C 35.574742,-0.00373729 35.184117,0.27361071 35.047398,0.69157871 L 30.074742,16.000173 H 15.926304 L 10.953648,0.69157871 C 10.820836,0.28923571 10.449742,0.01189171 10.023961,1.7271269e-4 9.5981789,-0.00763929 9.2153669,0.25017271 9.0630229,0.64861071 L 3.0708359,16.640798 c -0.00391,0 -0.00391,0.0039 -0.00781,0.0078 l -2.99999996,8 c -0.15625,0.421875 -0.015625,0.894531 0.351563,1.160156 l 21.99218706,15.992187 0.0039,0.0078 c 0.0039,0 0.0039,0 0.0039,0.0039 0.01172,0.0078 0.02734,0.01563 0.03906,0.02344 0.01563,0.0078 0.02734,0.01953 0.04297,0.02734 0.0039,0 0.0039,0.0039 0.0078,0.0039 0,0 0.0039,0.0039 0.0078,0.0039 0.0039,0.0039 0.0078,0.0078 0.01563,0.0078 0.0039,0.0039 0.01172,0.0078 0.01563,0.01172 0.01953,0.0078 0.04297,0.01953 0.06641,0.02734 0,0 0,0 0,0.0039 0.02344,0.0078 0.04687,0.01563 0.06641,0.02344 0.0039,0 0.0039,0 0.0078,0.0039 0.01563,0.0039 0.03125,0.0078 0.05078,0.01563 0.0078,0 0.01563,0.0039 0.02734,0.0039 0,0.0039 0,0.0039 0,0 0.01953,0.0078 0.03906,0.01172 0.05859,0.01563 0.02734,0.0039 0.05078,0.0078 0.07813,0.01172 0.03906,0 0.08203,0.0039 0.121093,0.0039 0.03906,-0.0039 0.07422,-0.0039 0.109375,-0.01172 0.01563,0 0.02734,0 0.04297,-0.0039 0,0 0.0039,0 0.0078,0 0.0078,-0.0039 0.01172,-0.0039 0.01953,-0.0039 0.0039,0 0.0078,-0.0039 0.01563,-0.0039 0.0078,-0.0039 0.01953,-0.0039 0.02734,-0.0078 0.01563,-0.0039 0.02734,-0.0078 0.03906,-0.01172 0.0078,0 0.01172,0 0.01563,-0.0039 0.0039,0 0.0078,0 0.01172,0 0.01563,-0.0078 0.03516,-0.01563 0.05078,-0.01953 0.01953,-0.0078 0.03516,-0.01563 0.05078,-0.02344 0.0039,0 0.0039,0 0.0078,-0.0039 0.0039,0 0.0078,0 0.01172,-0.0039 0.0078,-0.0039 0.01563,-0.0078 0.02344,-0.01172 0.02344,-0.01172 0.04297,-0.02344 0.0625,-0.03516 0.0078,-0.0039 0.01172,-0.0078 0.01563,-0.01172 0.0039,0 0.0078,-0.0039 0.01172,-0.0039 0.01563,-0.01172 0.03125,-0.01953 0.04687,-0.03125 l 0.0078,-0.01172 21.992188,-15.988281 c 0.363281,-0.265625 0.503906,-0.738281 0.347656,-1.160156 l -2.992187,-7.972657 c -0.0039,-0.0078 -0.0078,-0.01953 -0.0078,-0.02734 l -6,-16.00000029 C 36.789586,0.26189171 36.426304,0.00407871 36.012242,1.7271269e-4 Z M 9.9341169,4.0275167 13.824742,16.000173 H 5.4458359 Z m 26.1328121,0 4.492188,11.9726563 H 32.176304 Z M 6.0669289,18.000173 h 8.4062501 l 5.855469,18.015625 z m 10.5117191,0 h 12.84375 l -6.421875,19.765625 z m 14.949219,0 h 8.40625 L 25.672398,36.015798 Z M 4.3130229,19.007986 17.688023,35.902517 2.2036479,24.640798 Z m 37.3750001,0 2.109375,5.632812 -15.484375,11.261719 z"
     id="path2"
     inkscape:connector-curvature="0" />
</svg>
