<?xml version="1.0" encoding="UTF-8" standalone="no"?>
<!-- Svg Vector Icons : http://www.onlinewebfonts.com/icon -->

<svg
   xmlns:dc="http://purl.org/dc/elements/1.1/"
   xmlns:cc="http://creativecommons.org/ns#"
   xmlns:rdf="http://www.w3.org/1999/02/22-rdf-syntax-ns#"
   xmlns:svg="http://www.w3.org/2000/svg"
   xmlns="http://www.w3.org/2000/svg"
   xmlns:sodipodi="http://sodipodi.sourceforge.net/DTD/sodipodi-0.dtd"
   xmlns:inkscape="http://www.inkscape.org/namespaces/inkscape"
   version="1.1"
   x="0px"
   y="0px"
   viewBox="0 0 816.70001 980"
   enable-background="new 0 0 1000 1000"
   xml:space="preserve"
   id="svg8"
   sodipodi:docname="resume.svg"
   width="816.70001"
   height="980"
   inkscape:version="0.92.3 (2405546, 2018-03-11)"><defs
   id="defs12" /><sodipodi:namedview
   pagecolor="#ffffff"
   bordercolor="#666666"
   borderopacity="1"
   objecttolerance="10"
   gridtolerance="10"
   guidetolerance="10"
   inkscape:pageopacity="0"
   inkscape:pageshadow="2"
   inkscape:window-width="780"
   inkscape:window-height="480"
   id="namedview10"
   showgrid="false"
   fit-margin-top="0"
   fit-margin-left="0"
   fit-margin-right="0"
   fit-margin-bottom="0"
   inkscape:zoom="0.236"
   inkscape:cx="408.3"
   inkscape:cy="490"
   inkscape:window-x="0"
   inkscape:window-y="0"
   inkscape:window-maximized="0"
   inkscape:current-layer="svg8" />
<metadata
   id="metadata2"> Svg Vector Icons : http://www.onlinewebfonts.com/icon <rdf:RDF><cc:Work
     rdf:about=""><dc:format>image/svg+xml</dc:format><dc:type
       rdf:resource="http://purl.org/dc/dcmitype/StillImage" /><dc:title></dc:title></cc:Work></rdf:RDF></metadata>
<g
   id="g6"
   transform="translate(-91.7,-10)"><path
     d="m 214.2,10 h 571.7 c 33.8,0 62.7,12 86.6,35.9 23.9,23.9 35.9,52.8 35.9,86.6 v 735 c 0,33.8 -12,62.7 -35.9,86.6 -24,23.9 -52.9,35.9 -86.7,35.9 H 214.2 c -33.8,0 -62.7,-12 -86.6,-35.9 -23.9,-23.9 -35.9,-52.8 -35.9,-86.6 v -735 c 0,-33.8 12,-62.7 35.9,-86.6 C 151.5,22 180.4,10 214.2,10 Z m 122.5,694.2 h 326.7 c 11.3,0 20.9,4 28.9,12 8,8 12,17.6 12,28.9 0,11.3 -4,20.9 -12,28.9 -8,8 -17.6,12 -28.9,12 H 336.7 c -11.3,0 -20.9,-4 -28.9,-12 -8,-8 -12,-17.6 -12,-28.9 0,-11.3 4,-20.9 12,-28.9 8,-8 17.6,-12 28.9,-12 z m 0,-163.4 h 326.7 c 11.3,0 20.9,4 28.9,12 8,8 12,17.6 12,28.9 0,11.3 -4,20.9 -12,28.9 -8,8 -17.6,12 -28.9,12 H 336.7 c -11.3,0 -20.9,-4 -28.9,-12 -8,-8 -12,-17.6 -12,-28.9 0,-11.3 4,-20.9 12,-28.9 8,-8 17.6,-12 28.9,-12 z M 785.8,91.7 H 214.2 c -11.3,0 -20.9,4 -28.9,12 -8,8 -12,17.6 -12,28.9 v 735 c 0,11.3 4,20.9 12,28.9 8,8 17.6,12 28.9,12 h 571.7 c 11.3,0 20.9,-4 28.9,-12 8,-8 12,-17.6 12,-28.9 v -735 c 0,-11.3 -4,-20.9 -12,-28.9 -8.1,-8 -17.7,-12 -29,-12 z M 336.7,377.5 h 326.7 c 11.3,0 20.9,4 28.9,12 8,8 12,17.6 12,28.9 0,11.3 -4,20.9 -12,28.9 -8,8 -17.6,12 -28.9,12 H 336.7 c -11.3,0 -20.9,-4 -28.9,-12 -8,-8 -12,-17.6 -12,-28.9 0,-11.3 4,-20.9 12,-28.9 8,-8 17.6,-12 28.9,-12 z m 0,-163.3 H 500 c 11.3,0 20.9,4 28.9,12 8,8 12,17.6 12,28.9 0,11.3 -4,20.9 -12,28.9 -8,8 -17.6,12 -28.9,12 H 336.7 c -11.3,0 -20.9,-4 -28.9,-12 -8,-8 -12,-17.6 -12,-28.9 0,-11.3 4,-20.9 12,-28.9 8,-8 17.6,-12 28.9,-12 z"
     id="path4"
     inkscape:connector-curvature="0" /></g>
</svg>