<?xml version="1.0" encoding="UTF-8" standalone="no"?>
<!-- Svg Vector Icons : http://www.onlinewebfonts.com/icon -->

<svg
   xmlns:dc="http://purl.org/dc/elements/1.1/"
   xmlns:cc="http://creativecommons.org/ns#"
   xmlns:rdf="http://www.w3.org/1999/02/22-rdf-syntax-ns#"
   xmlns:svg="http://www.w3.org/2000/svg"
   xmlns="http://www.w3.org/2000/svg"
   xmlns:sodipodi="http://sodipodi.sourceforge.net/DTD/sodipodi-0.dtd"
   xmlns:inkscape="http://www.inkscape.org/namespaces/inkscape"
   version="1.1"
   x="0px"
   y="0px"
   viewBox="0 0 816.70001 980"
   enable-background="new 0 0 1000 1000"
   xml:space="preserve"
   id="svg8"
   sodipodi:docname="resume.svg"
   width="816.70001"
   height="980"
   inkscape:version="0.92.3 (2405546, 2018-03-11)"><defs
   id="defs12" /><sodipodi:namedview
   pagecolor="#ffffff"
   bordercolor="#666666"
   borderopacity="1"
   objecttolerance="10"
   gridtolerance="10"
   guidetolerance="10"
   inkscape:pageopacity="0"
   inkscape:pageshadow="2"
   inkscape:window-width="1920"
   inkscape:window-height="1015"
   id="namedview10"
   showgrid="false"
   fit-margin-top="0"
   fit-margin-left="0"
   fit-margin-right="0"
   fit-margin-bottom="0"
   inkscape:zoom="0.118"
   inkscape:cx="-1917.547"
   inkscape:cy="1946.1405"
   inkscape:window-x="0"
   inkscape:window-y="0"
   inkscape:window-maximized="1"
   inkscape:current-layer="svg8" />
<metadata
   id="metadata2"> Svg Vector Icons : http://www.onlinewebfonts.com/icon <rdf:RDF><cc:Work
     rdf:about=""><dc:format>image/svg+xml</dc:format><dc:type
       rdf:resource="http://purl.org/dc/dcmitype/StillImage" /><dc:title></dc:title></cc:Work></rdf:RDF></metadata>
<path
   inkscape:connector-curvature="0"
   id="path4"
   d="m 122.5,0 h 571.7 c 33.8,0 62.7,12 86.6,35.9 23.9,23.9 35.9,52.8 35.9,86.6 v 735 c 0,33.8 -12,62.7 -35.9,86.6 -24,23.9 -52.9,35.9 -86.7,35.9 H 122.5 C 88.7,980 59.8,968 35.9,944.1 12,920.2 0,891.3 0,857.5 v -735 C 0,88.7 12,59.8 35.9,35.9 59.8,12 88.7,0 122.5,0 Z M 245,694.2 h 326.7 c 11.3,0 20.9,4 28.9,12 8,8 12,17.6 12,28.9 0,11.3 -4,20.9 -12,28.9 -8,8 -17.6,12 -28.9,12 H 245 c -11.3,0 -20.9,-4 -28.9,-12 -8,-8 -12,-17.6 -12,-28.9 0,-11.3 4,-20.9 12,-28.9 8,-8 17.6,-12 28.9,-12 z m 0,-163.4 h 326.7 c 11.3,0 20.9,4 28.9,12 8,8 12,17.6 12,28.9 0,11.3 -4,20.9 -12,28.9 -8,8 -17.6,12 -28.9,12 H 245 c -11.3,0 -20.9,-4 -28.9,-12 -8,-8 -12,-17.6 -12,-28.9 0,-11.3 4,-20.9 12,-28.9 8,-8 17.6,-12 28.9,-12 z M 694.1,81.7 H 122.5 c -11.3,0 -20.9,4 -28.9,12 -8,8 -12,17.6 -12,28.9 v 735 c 0,11.3 4,20.9 12,28.9 8,8 17.6,12 28.9,12 h 571.7 c 11.3,0 20.9,-4 28.9,-12 8,-8 12,-17.6 12,-28.9 v -735 c 0,-11.3 -4,-20.9 -12,-28.9 -8.1,-8 -17.7,-12 -29,-12 z"
   sodipodi:nodetypes="ssssscsssssssssssssssssssssssssssssssssssssssscs" />
<g
   aria-label="cv"
   style="font-style:normal;font-weight:normal;font-size:40px;line-height:1.25;font-family:sans-serif;letter-spacing:0px;word-spacing:0px;fill:#000000;fill-opacity:1;stroke:none"
   id="text864"
   transform="matrix(12.821389,0,0,13.689841,23369.869,-3686.8928)"><path
     d="m -1800.2023,303.246 q -2.0703,0 -3.6133,-0.78125 -1.5429,-0.78125 -2.5781,-2.20703 -1.0156,-1.42578 -1.5234,-3.41797 -0.5078,-2.01172 -0.5078,-4.43359 0,-2.63672 0.5468,-4.6875 0.5665,-2.07031 1.6211,-3.47656 1.0547,-1.42579 2.5977,-2.16797 1.5625,-0.74219 3.5156,-0.74219 1.6797,0 2.9883,0.54687 1.3086,0.54688 2.2461,1.50391 0.957,0.9375 1.543,2.22656 0.5859,1.28907 0.8007,2.77344 l -4.5312,0.27344 q -0.1953,-1.6211 -0.957,-2.57813 -0.7618,-0.97656 -2.1875,-0.97656 -1.8164,0 -2.6368,1.81641 -0.8203,1.8164 -0.8203,5.27343 0,7.30469 3.5352,7.30469 1.2891,0 2.1484,-0.97656 0.8594,-0.99609 1.0742,-2.94922 l 4.5118,0.25391 q -0.1563,1.46484 -0.7422,2.8125 -0.5664,1.32812 -1.543,2.36328 -0.957,1.01562 -2.3437,1.64062 -1.3672,0.60547 -3.1446,0.60547 z"
     style="font-style:normal;font-variant:normal;font-weight:bold;font-stretch:condensed;font-family:'Liberation Sans Narrow';-inkscape-font-specification:'Liberation Sans Narrow Bold Condensed'"
     id="path866"
     inkscape:connector-curvature="0" /><path
     d="m -1779.7335,302.85538 h -5.3711 l -6.1914,-21.13282 h 4.7461 l 3.0273,11.81641 q 0,0 0.293,1.23047 0.1758,0.66406 0.3125,1.30859 l 0.293,1.25 q 0.1367,0.60547 0.2343,1.09375 0.098,-0.46875 0.2539,-1.07422 l 0.293,-1.23046 0.332,-1.28907 0.3125,-1.23047 3.1641,-11.875 h 4.707 z"
     style="font-style:normal;font-variant:normal;font-weight:bold;font-stretch:condensed;font-family:'Liberation Sans Narrow';-inkscape-font-specification:'Liberation Sans Narrow Bold Condensed'"
     id="path868"
     inkscape:connector-curvature="0" /></g></svg>